<svg xmlns="http://www.w3.org/2000/svg" xmlns:xlink="http://www.w3.org/1999/xlink" width="500" zoomAndPan="magnify" viewBox="0 0 375 74.999997" height="100" preserveAspectRatio="xMidYMid meet" version="1.0"><defs><g/><clipPath id="14124cfa08"><path d="M 7.511719 55.175781 L 50.328125 55.175781 L 50.328125 67.839844 L 7.511719 67.839844 Z M 7.511719 55.175781 " clip-rule="nonzero"/></clipPath><clipPath id="5a16629b2d"><path d="M 68.234375 7.152344 L 111 7.152344 L 111 19.6875 L 68.234375 19.6875 Z M 68.234375 7.152344 " clip-rule="nonzero"/></clipPath><clipPath id="b50b62eed3"><path d="M 7.511719 7.152344 L 111 7.152344 L 111 67.839844 L 7.511719 67.839844 Z M 7.511719 7.152344 " clip-rule="nonzero"/></clipPath></defs><g clip-path="url(#14124cfa08)"><path fill="#5271ff" d="M 19.476562 55.316406 L 7.511719 55.316406 L 7.511719 67.839844 L 32.921875 67.839844 C 41.011719 67.839844 47.867188 62.589844 50.285156 55.316406 L 19.476562 55.316406 " fill-opacity="1" fill-rule="nonzero"/></g><g clip-path="url(#5a16629b2d)"><path fill="#5271ff" d="M 85.75 7.152344 C 77.664062 7.152344 70.808594 12.398438 68.386719 19.671875 L 111.164062 19.671875 L 111.164062 7.152344 L 85.75 7.152344 " fill-opacity="1" fill-rule="nonzero"/></g><g clip-path="url(#b50b62eed3)"><path fill="#5271ff" d="M 92.863281 31.234375 L 28.898438 31.234375 L 28.898438 34.664062 L 15.066406 25.453125 L 28.898438 16.242188 L 28.898438 19.671875 L 51.226562 19.671875 L 51.226562 7.152344 L 25.8125 7.152344 C 15.703125 7.152344 7.511719 15.34375 7.511719 25.453125 C 7.511719 35.558594 15.703125 43.753906 25.8125 43.753906 L 89.773438 43.753906 L 89.773438 40.324219 L 103.609375 49.535156 L 89.773438 58.75 L 89.773438 55.316406 L 67.449219 55.316406 L 67.449219 67.839844 L 92.863281 67.839844 C 102.96875 67.839844 111.164062 59.644531 111.164062 49.535156 C 111.164062 39.429688 102.96875 31.234375 92.863281 31.234375 " fill-opacity="1" fill-rule="nonzero"/></g><g fill="#ffffff" fill-opacity="1"><g transform="translate(126.183028, 38.784034)"><g><path d="M 10.734375 0.234375 C 8.992188 0.234375 7.429688 -0.046875 6.046875 -0.609375 C 4.660156 -1.171875 3.554688 -2.007812 2.734375 -3.125 C 1.910156 -4.238281 1.472656 -5.578125 1.421875 -7.140625 L 7.609375 -7.140625 C 7.703125 -6.253906 8.007812 -5.578125 8.53125 -5.109375 C 9.050781 -4.648438 9.726562 -4.421875 10.5625 -4.421875 C 11.425781 -4.421875 12.101562 -4.617188 12.59375 -5.015625 C 13.09375 -5.410156 13.34375 -5.957031 13.34375 -6.65625 C 13.34375 -7.25 13.144531 -7.738281 12.75 -8.125 C 12.351562 -8.507812 11.863281 -8.820312 11.28125 -9.0625 C 10.707031 -9.3125 9.890625 -9.597656 8.828125 -9.921875 C 7.285156 -10.390625 6.023438 -10.863281 5.046875 -11.34375 C 4.078125 -11.820312 3.242188 -12.523438 2.546875 -13.453125 C 1.847656 -14.378906 1.5 -15.59375 1.5 -17.09375 C 1.5 -19.3125 2.300781 -21.046875 3.90625 -22.296875 C 5.507812 -23.554688 7.601562 -24.1875 10.1875 -24.1875 C 12.8125 -24.1875 14.925781 -23.554688 16.53125 -22.296875 C 18.144531 -21.046875 19.007812 -19.296875 19.125 -17.046875 L 12.84375 -17.046875 C 12.789062 -17.816406 12.503906 -18.421875 11.984375 -18.859375 C 11.460938 -19.304688 10.796875 -19.53125 9.984375 -19.53125 C 9.285156 -19.53125 8.71875 -19.34375 8.28125 -18.96875 C 7.851562 -18.59375 7.640625 -18.054688 7.640625 -17.359375 C 7.640625 -16.585938 8 -15.984375 8.71875 -15.546875 C 9.445312 -15.117188 10.582031 -14.660156 12.125 -14.171875 C 13.664062 -13.648438 14.914062 -13.148438 15.875 -12.671875 C 16.84375 -12.191406 17.675781 -11.5 18.375 -10.59375 C 19.082031 -9.6875 19.4375 -8.519531 19.4375 -7.09375 C 19.4375 -5.738281 19.085938 -4.503906 18.390625 -3.390625 C 17.703125 -2.285156 16.703125 -1.40625 15.390625 -0.75 C 14.078125 -0.09375 12.523438 0.234375 10.734375 0.234375 Z M 10.734375 0.234375 "/></g></g></g><g fill="#ffffff" fill-opacity="1"><g transform="translate(147.06809, 38.784034)"><g><path d="M 0.953125 -9.484375 C 0.953125 -11.453125 1.351562 -13.171875 2.15625 -14.640625 C 2.957031 -16.109375 4.078125 -17.238281 5.515625 -18.03125 C 6.953125 -18.820312 8.601562 -19.21875 10.46875 -19.21875 C 12.84375 -19.21875 14.828125 -18.59375 16.421875 -17.34375 C 18.015625 -16.101562 19.0625 -14.351562 19.5625 -12.09375 L 13.390625 -12.09375 C 12.867188 -13.539062 11.859375 -14.265625 10.359375 -14.265625 C 9.296875 -14.265625 8.445312 -13.847656 7.8125 -13.015625 C 7.175781 -12.191406 6.859375 -11.015625 6.859375 -9.484375 C 6.859375 -7.941406 7.175781 -6.753906 7.8125 -5.921875 C 8.445312 -5.097656 9.296875 -4.6875 10.359375 -4.6875 C 11.859375 -4.6875 12.867188 -5.410156 13.390625 -6.859375 L 19.5625 -6.859375 C 19.0625 -4.640625 18.007812 -2.894531 16.40625 -1.625 C 14.800781 -0.363281 12.820312 0.265625 10.46875 0.265625 C 8.601562 0.265625 6.953125 -0.128906 5.515625 -0.921875 C 4.078125 -1.710938 2.957031 -2.84375 2.15625 -4.3125 C 1.351562 -5.78125 0.953125 -7.503906 0.953125 -9.484375 Z M 0.953125 -9.484375 "/></g></g></g><g fill="#ffffff" fill-opacity="1"><g transform="translate(167.613559, 38.784034)"><g><path d="M 0.953125 -9.515625 C 0.953125 -11.460938 1.316406 -13.171875 2.046875 -14.640625 C 2.785156 -16.109375 3.789062 -17.238281 5.0625 -18.03125 C 6.332031 -18.820312 7.75 -19.21875 9.3125 -19.21875 C 10.644531 -19.21875 11.8125 -18.945312 12.8125 -18.40625 C 13.820312 -17.863281 14.601562 -17.148438 15.15625 -16.265625 L 15.15625 -18.953125 L 20.953125 -18.953125 L 20.953125 0 L 15.15625 0 L 15.15625 -2.6875 C 14.582031 -1.800781 13.789062 -1.085938 12.78125 -0.546875 C 11.78125 -0.00390625 10.613281 0.265625 9.28125 0.265625 C 7.738281 0.265625 6.332031 -0.132812 5.0625 -0.9375 C 3.789062 -1.738281 2.785156 -2.878906 2.046875 -4.359375 C 1.316406 -5.847656 0.953125 -7.566406 0.953125 -9.515625 Z M 15.15625 -9.484375 C 15.15625 -10.929688 14.75 -12.070312 13.9375 -12.90625 C 13.132812 -13.75 12.15625 -14.171875 11 -14.171875 C 9.851562 -14.171875 8.875 -13.753906 8.0625 -12.921875 C 7.257812 -12.097656 6.859375 -10.960938 6.859375 -9.515625 C 6.859375 -8.066406 7.257812 -6.914062 8.0625 -6.0625 C 8.875 -5.21875 9.851562 -4.796875 11 -4.796875 C 12.15625 -4.796875 13.132812 -5.210938 13.9375 -6.046875 C 14.75 -6.878906 15.15625 -8.023438 15.15625 -9.484375 Z M 15.15625 -9.484375 "/></g></g></g><g fill="#ffffff" fill-opacity="1"><g transform="translate(190.672025, 38.784034)"><g><path d="M 7.921875 -25.140625 L 7.921875 0 L 2.109375 0 L 2.109375 -25.140625 Z M 7.921875 -25.140625 "/></g></g></g><g fill="#ffffff" fill-opacity="1"><g transform="translate(200.690062, 38.784034)"><g><path d="M 19.96875 -9.78125 C 19.96875 -9.238281 19.9375 -8.671875 19.875 -8.078125 L 6.71875 -8.078125 C 6.8125 -6.898438 7.191406 -6 7.859375 -5.375 C 8.523438 -4.757812 9.347656 -4.453125 10.328125 -4.453125 C 11.773438 -4.453125 12.78125 -5.0625 13.34375 -6.28125 L 19.53125 -6.28125 C 19.21875 -5.039062 18.644531 -3.921875 17.8125 -2.921875 C 16.988281 -1.921875 15.953125 -1.140625 14.703125 -0.578125 C 13.460938 -0.015625 12.070312 0.265625 10.53125 0.265625 C 8.675781 0.265625 7.019531 -0.128906 5.5625 -0.921875 C 4.113281 -1.710938 2.984375 -2.84375 2.171875 -4.3125 C 1.359375 -5.78125 0.953125 -7.503906 0.953125 -9.484375 C 0.953125 -11.453125 1.351562 -13.171875 2.15625 -14.640625 C 2.957031 -16.109375 4.082031 -17.238281 5.53125 -18.03125 C 6.976562 -18.820312 8.644531 -19.21875 10.53125 -19.21875 C 12.363281 -19.21875 13.992188 -18.832031 15.421875 -18.0625 C 16.847656 -17.300781 17.960938 -16.207031 18.765625 -14.78125 C 19.566406 -13.351562 19.96875 -11.6875 19.96875 -9.78125 Z M 14.03125 -11.3125 C 14.03125 -12.3125 13.6875 -13.101562 13 -13.6875 C 12.320312 -14.28125 11.476562 -14.578125 10.46875 -14.578125 C 9.488281 -14.578125 8.664062 -14.289062 8 -13.71875 C 7.332031 -13.15625 6.921875 -12.351562 6.765625 -11.3125 Z M 14.03125 -11.3125 "/></g></g></g><g fill="#ffffff" fill-opacity="1"><g transform="translate(221.609089, 38.784034)"><g/></g></g><g fill="#ffffff" fill-opacity="1"><g transform="translate(228.808489, 38.784034)"><g><path d="M 10.734375 0.234375 C 8.992188 0.234375 7.429688 -0.046875 6.046875 -0.609375 C 4.660156 -1.171875 3.554688 -2.007812 2.734375 -3.125 C 1.910156 -4.238281 1.472656 -5.578125 1.421875 -7.140625 L 7.609375 -7.140625 C 7.703125 -6.253906 8.007812 -5.578125 8.53125 -5.109375 C 9.050781 -4.648438 9.726562 -4.421875 10.5625 -4.421875 C 11.425781 -4.421875 12.101562 -4.617188 12.59375 -5.015625 C 13.09375 -5.410156 13.34375 -5.957031 13.34375 -6.65625 C 13.34375 -7.25 13.144531 -7.738281 12.75 -8.125 C 12.351562 -8.507812 11.863281 -8.820312 11.28125 -9.0625 C 10.707031 -9.3125 9.890625 -9.597656 8.828125 -9.921875 C 7.285156 -10.390625 6.023438 -10.863281 5.046875 -11.34375 C 4.078125 -11.820312 3.242188 -12.523438 2.546875 -13.453125 C 1.847656 -14.378906 1.5 -15.59375 1.5 -17.09375 C 1.5 -19.3125 2.300781 -21.046875 3.90625 -22.296875 C 5.507812 -23.554688 7.601562 -24.1875 10.1875 -24.1875 C 12.8125 -24.1875 14.925781 -23.554688 16.53125 -22.296875 C 18.144531 -21.046875 19.007812 -19.296875 19.125 -17.046875 L 12.84375 -17.046875 C 12.789062 -17.816406 12.503906 -18.421875 11.984375 -18.859375 C 11.460938 -19.304688 10.796875 -19.53125 9.984375 -19.53125 C 9.285156 -19.53125 8.71875 -19.34375 8.28125 -18.96875 C 7.851562 -18.59375 7.640625 -18.054688 7.640625 -17.359375 C 7.640625 -16.585938 8 -15.984375 8.71875 -15.546875 C 9.445312 -15.117188 10.582031 -14.660156 12.125 -14.171875 C 13.664062 -13.648438 14.914062 -13.148438 15.875 -12.671875 C 16.84375 -12.191406 17.675781 -11.5 18.375 -10.59375 C 19.082031 -9.6875 19.4375 -8.519531 19.4375 -7.09375 C 19.4375 -5.738281 19.085938 -4.503906 18.390625 -3.390625 C 17.703125 -2.285156 16.703125 -1.40625 15.390625 -0.75 C 14.078125 -0.09375 12.523438 0.234375 10.734375 0.234375 Z M 10.734375 0.234375 "/></g></g></g><g fill="#ffffff" fill-opacity="1"><g transform="translate(249.69355, 38.784034)"><g><path d="M 12.671875 -4.921875 L 12.671875 0 L 9.71875 0 C 7.613281 0 5.96875 -0.515625 4.78125 -1.546875 C 3.601562 -2.578125 3.015625 -4.257812 3.015625 -6.59375 L 3.015625 -14.125 L 0.71875 -14.125 L 0.71875 -18.953125 L 3.015625 -18.953125 L 3.015625 -23.578125 L 8.828125 -23.578125 L 8.828125 -18.953125 L 12.640625 -18.953125 L 12.640625 -14.125 L 8.828125 -14.125 L 8.828125 -6.515625 C 8.828125 -5.953125 8.960938 -5.546875 9.234375 -5.296875 C 9.503906 -5.046875 9.957031 -4.921875 10.59375 -4.921875 Z M 12.671875 -4.921875 "/></g></g></g><g fill="#ffffff" fill-opacity="1"><g transform="translate(263.481083, 38.784034)"><g><path d="M 0.953125 -9.515625 C 0.953125 -11.460938 1.316406 -13.171875 2.046875 -14.640625 C 2.785156 -16.109375 3.789062 -17.238281 5.0625 -18.03125 C 6.332031 -18.820312 7.75 -19.21875 9.3125 -19.21875 C 10.644531 -19.21875 11.8125 -18.945312 12.8125 -18.40625 C 13.820312 -17.863281 14.601562 -17.148438 15.15625 -16.265625 L 15.15625 -18.953125 L 20.953125 -18.953125 L 20.953125 0 L 15.15625 0 L 15.15625 -2.6875 C 14.582031 -1.800781 13.789062 -1.085938 12.78125 -0.546875 C 11.78125 -0.00390625 10.613281 0.265625 9.28125 0.265625 C 7.738281 0.265625 6.332031 -0.132812 5.0625 -0.9375 C 3.789062 -1.738281 2.785156 -2.878906 2.046875 -4.359375 C 1.316406 -5.847656 0.953125 -7.566406 0.953125 -9.515625 Z M 15.15625 -9.484375 C 15.15625 -10.929688 14.75 -12.070312 13.9375 -12.90625 C 13.132812 -13.75 12.15625 -14.171875 11 -14.171875 C 9.851562 -14.171875 8.875 -13.753906 8.0625 -12.921875 C 7.257812 -12.097656 6.859375 -10.960938 6.859375 -9.515625 C 6.859375 -8.066406 7.257812 -6.914062 8.0625 -6.0625 C 8.875 -5.21875 9.851562 -4.796875 11 -4.796875 C 12.15625 -4.796875 13.132812 -5.210938 13.9375 -6.046875 C 14.75 -6.878906 15.15625 -8.023438 15.15625 -9.484375 Z M 15.15625 -9.484375 "/></g></g></g><g fill="#ffffff" fill-opacity="1"><g transform="translate(286.53955, 38.784034)"><g><path d="M 7.921875 -15.796875 C 8.597656 -16.835938 9.441406 -17.65625 10.453125 -18.25 C 11.472656 -18.851562 12.609375 -19.15625 13.859375 -19.15625 L 13.859375 -13.015625 L 12.265625 -13.015625 C 10.816406 -13.015625 9.726562 -12.703125 9 -12.078125 C 8.28125 -11.453125 7.921875 -10.359375 7.921875 -8.796875 L 7.921875 0 L 2.109375 0 L 2.109375 -18.953125 L 7.921875 -18.953125 Z M 7.921875 -15.796875 "/></g></g></g><g fill="#ffffff" fill-opacity="1"><g transform="translate(301.074199, 38.784034)"><g><path d="M 12.671875 -4.921875 L 12.671875 0 L 9.71875 0 C 7.613281 0 5.96875 -0.515625 4.78125 -1.546875 C 3.601562 -2.578125 3.015625 -4.257812 3.015625 -6.59375 L 3.015625 -14.125 L 0.71875 -14.125 L 0.71875 -18.953125 L 3.015625 -18.953125 L 3.015625 -23.578125 L 8.828125 -23.578125 L 8.828125 -18.953125 L 12.640625 -18.953125 L 12.640625 -14.125 L 8.828125 -14.125 L 8.828125 -6.515625 C 8.828125 -5.953125 8.960938 -5.546875 9.234375 -5.296875 C 9.503906 -5.046875 9.957031 -4.921875 10.59375 -4.921875 Z M 12.671875 -4.921875 "/></g></g></g><g fill="#ffffff" fill-opacity="1"><g transform="translate(314.861732, 38.784034)"><g><path d="M 20.828125 -18.953125 L 20.828125 0 L 15.015625 0 L 15.015625 -2.578125 C 14.421875 -1.742188 13.617188 -1.070312 12.609375 -0.5625 C 11.609375 -0.0507812 10.5 0.203125 9.28125 0.203125 C 7.820312 0.203125 6.535156 -0.117188 5.421875 -0.765625 C 4.316406 -1.410156 3.457031 -2.34375 2.84375 -3.5625 C 2.238281 -4.789062 1.9375 -6.226562 1.9375 -7.875 L 1.9375 -18.953125 L 7.703125 -18.953125 L 7.703125 -8.65625 C 7.703125 -7.394531 8.03125 -6.410156 8.6875 -5.703125 C 9.351562 -5.003906 10.238281 -4.65625 11.34375 -4.65625 C 12.476562 -4.65625 13.375 -5.003906 14.03125 -5.703125 C 14.6875 -6.410156 15.015625 -7.394531 15.015625 -8.65625 L 15.015625 -18.953125 Z M 20.828125 -18.953125 "/></g></g></g><g fill="#ffffff" fill-opacity="1"><g transform="translate(337.750408, 38.784034)"><g><path d="M 7.921875 -16.265625 C 8.484375 -17.148438 9.257812 -17.863281 10.25 -18.40625 C 11.25 -18.945312 12.414062 -19.21875 13.75 -19.21875 C 15.3125 -19.21875 16.726562 -18.820312 18 -18.03125 C 19.269531 -17.238281 20.269531 -16.109375 21 -14.640625 C 21.738281 -13.171875 22.109375 -11.460938 22.109375 -9.515625 C 22.109375 -7.566406 21.738281 -5.847656 21 -4.359375 C 20.269531 -2.878906 19.269531 -1.738281 18 -0.9375 C 16.726562 -0.132812 15.3125 0.265625 13.75 0.265625 C 12.4375 0.265625 11.273438 -0.00390625 10.265625 -0.546875 C 9.265625 -1.085938 8.484375 -1.789062 7.921875 -2.65625 L 7.921875 9.03125 L 2.109375 9.03125 L 2.109375 -18.953125 L 7.921875 -18.953125 Z M 16.203125 -9.515625 C 16.203125 -10.960938 15.800781 -12.097656 15 -12.921875 C 14.195312 -13.753906 13.207031 -14.171875 12.03125 -14.171875 C 10.875 -14.171875 9.890625 -13.75 9.078125 -12.90625 C 8.273438 -12.070312 7.875 -10.929688 7.875 -9.484375 C 7.875 -8.023438 8.273438 -6.878906 9.078125 -6.046875 C 9.890625 -5.210938 10.875 -4.796875 12.03125 -4.796875 C 13.175781 -4.796875 14.15625 -5.21875 14.96875 -6.0625 C 15.789062 -6.914062 16.203125 -8.066406 16.203125 -9.515625 Z M 16.203125 -9.515625 "/></g></g></g><g fill="#5271ff" fill-opacity="1"><g transform="translate(126.183028, 63.761737)"><g><path d="M 10.34375 -10.375 L 6.53125 0 L 4.015625 0 L 0.203125 -10.375 L 2.4375 -10.375 L 5.296875 -2.125 L 8.125 -10.375 Z M 10.34375 -10.375 "/></g></g></g><g fill="#5271ff" fill-opacity="1"><g transform="translate(138.972388, 63.761737)"><g><path d="M 2.078125 -9.21875 C 1.710938 -9.21875 1.40625 -9.332031 1.15625 -9.5625 C 0.914062 -9.789062 0.796875 -10.082031 0.796875 -10.4375 C 0.796875 -10.78125 0.914062 -11.066406 1.15625 -11.296875 C 1.40625 -11.535156 1.710938 -11.65625 2.078125 -11.65625 C 2.441406 -11.65625 2.742188 -11.535156 2.984375 -11.296875 C 3.234375 -11.066406 3.359375 -10.78125 3.359375 -10.4375 C 3.359375 -10.082031 3.234375 -9.789062 2.984375 -9.5625 C 2.742188 -9.332031 2.441406 -9.21875 2.078125 -9.21875 Z M 3.109375 -8.234375 L 3.109375 0 L 1.03125 0 L 1.03125 -8.234375 Z M 3.109375 -8.234375 "/></g></g></g><g fill="#5271ff" fill-opacity="1"><g transform="translate(145.330552, 63.761737)"><g><path d="M 4.171875 0.140625 C 3.503906 0.140625 2.898438 0.0195312 2.359375 -0.21875 C 1.828125 -0.46875 1.40625 -0.800781 1.09375 -1.21875 C 0.78125 -1.632812 0.609375 -2.09375 0.578125 -2.59375 L 2.671875 -2.59375 C 2.710938 -2.28125 2.867188 -2.019531 3.140625 -1.8125 C 3.410156 -1.601562 3.75 -1.5 4.15625 -1.5 C 4.550781 -1.5 4.859375 -1.578125 5.078125 -1.734375 C 5.304688 -1.890625 5.421875 -2.09375 5.421875 -2.34375 C 5.421875 -2.613281 5.285156 -2.816406 5.015625 -2.953125 C 4.742188 -3.085938 4.3125 -3.234375 3.71875 -3.390625 C 3.101562 -3.535156 2.597656 -3.6875 2.203125 -3.84375 C 1.816406 -4.007812 1.476562 -4.253906 1.1875 -4.578125 C 0.90625 -4.898438 0.765625 -5.34375 0.765625 -5.90625 C 0.765625 -6.351562 0.894531 -6.765625 1.15625 -7.140625 C 1.425781 -7.523438 1.804688 -7.820312 2.296875 -8.03125 C 2.785156 -8.25 3.363281 -8.359375 4.03125 -8.359375 C 5.007812 -8.359375 5.789062 -8.113281 6.375 -7.625 C 6.957031 -7.132812 7.28125 -6.472656 7.34375 -5.640625 L 5.34375 -5.640625 C 5.320312 -5.972656 5.1875 -6.234375 4.9375 -6.421875 C 4.695312 -6.617188 4.375 -6.71875 3.96875 -6.71875 C 3.59375 -6.71875 3.300781 -6.644531 3.09375 -6.5 C 2.894531 -6.363281 2.796875 -6.171875 2.796875 -5.921875 C 2.796875 -5.648438 2.929688 -5.441406 3.203125 -5.296875 C 3.484375 -5.148438 3.914062 -5.003906 4.5 -4.859375 C 5.09375 -4.710938 5.582031 -4.554688 5.96875 -4.390625 C 6.351562 -4.234375 6.6875 -3.988281 6.96875 -3.65625 C 7.257812 -3.332031 7.410156 -2.894531 7.421875 -2.34375 C 7.421875 -1.875 7.285156 -1.445312 7.015625 -1.0625 C 6.753906 -0.6875 6.378906 -0.390625 5.890625 -0.171875 C 5.398438 0.0351562 4.828125 0.140625 4.171875 0.140625 Z M 4.171875 0.140625 "/></g></g></g><g fill="#5271ff" fill-opacity="1"><g transform="translate(155.654377, 63.761737)"><g><path d="M 2.078125 -9.21875 C 1.710938 -9.21875 1.40625 -9.332031 1.15625 -9.5625 C 0.914062 -9.789062 0.796875 -10.082031 0.796875 -10.4375 C 0.796875 -10.78125 0.914062 -11.066406 1.15625 -11.296875 C 1.40625 -11.535156 1.710938 -11.65625 2.078125 -11.65625 C 2.441406 -11.65625 2.742188 -11.535156 2.984375 -11.296875 C 3.234375 -11.066406 3.359375 -10.78125 3.359375 -10.4375 C 3.359375 -10.082031 3.234375 -9.789062 2.984375 -9.5625 C 2.742188 -9.332031 2.441406 -9.21875 2.078125 -9.21875 Z M 3.109375 -8.234375 L 3.109375 0 L 1.03125 0 L 1.03125 -8.234375 Z M 3.109375 -8.234375 "/></g></g></g><g fill="#5271ff" fill-opacity="1"><g transform="translate(162.01254, 63.761737)"><g><path d="M 4.6875 0.140625 C 3.882812 0.140625 3.164062 -0.0351562 2.53125 -0.390625 C 1.90625 -0.742188 1.410156 -1.242188 1.046875 -1.890625 C 0.679688 -2.535156 0.5 -3.273438 0.5 -4.109375 C 0.5 -4.953125 0.6875 -5.695312 1.0625 -6.34375 C 1.4375 -6.988281 1.941406 -7.484375 2.578125 -7.828125 C 3.222656 -8.179688 3.941406 -8.359375 4.734375 -8.359375 C 5.523438 -8.359375 6.242188 -8.179688 6.890625 -7.828125 C 7.535156 -7.484375 8.039062 -6.988281 8.40625 -6.34375 C 8.78125 -5.695312 8.96875 -4.953125 8.96875 -4.109375 C 8.96875 -3.273438 8.773438 -2.535156 8.390625 -1.890625 C 8.015625 -1.242188 7.503906 -0.742188 6.859375 -0.390625 C 6.210938 -0.0351562 5.488281 0.140625 4.6875 0.140625 Z M 4.6875 -1.671875 C 5.0625 -1.671875 5.410156 -1.765625 5.734375 -1.953125 C 6.066406 -2.140625 6.332031 -2.414062 6.53125 -2.78125 C 6.726562 -3.144531 6.828125 -3.585938 6.828125 -4.109375 C 6.828125 -4.898438 6.625 -5.503906 6.21875 -5.921875 C 5.8125 -6.335938 5.304688 -6.546875 4.703125 -6.546875 C 4.109375 -6.546875 3.609375 -6.335938 3.203125 -5.921875 C 2.804688 -5.503906 2.609375 -4.898438 2.609375 -4.109375 C 2.609375 -3.328125 2.804688 -2.722656 3.203125 -2.296875 C 3.597656 -1.878906 4.09375 -1.671875 4.6875 -1.671875 Z M 4.6875 -1.671875 "/></g></g></g><g fill="#5271ff" fill-opacity="1"><g transform="translate(173.717655, 63.761737)"><g><path d="M 5.59375 -8.34375 C 6.570312 -8.34375 7.363281 -8.035156 7.96875 -7.421875 C 8.570312 -6.804688 8.875 -5.941406 8.875 -4.828125 L 8.875 0 L 6.796875 0 L 6.796875 -4.546875 C 6.796875 -5.203125 6.628906 -5.703125 6.296875 -6.046875 C 5.972656 -6.398438 5.53125 -6.578125 4.96875 -6.578125 C 4.382812 -6.578125 3.925781 -6.398438 3.59375 -6.046875 C 3.269531 -5.703125 3.109375 -5.203125 3.109375 -4.546875 L 3.109375 0 L 1.03125 0 L 1.03125 -8.234375 L 3.109375 -8.234375 L 3.109375 -7.203125 C 3.378906 -7.554688 3.726562 -7.832031 4.15625 -8.03125 C 4.59375 -8.238281 5.070312 -8.34375 5.59375 -8.34375 Z M 5.59375 -8.34375 "/></g></g></g><g fill="#5271ff" fill-opacity="1"><g transform="translate(185.76438, 63.761737)"><g/></g></g><g fill="#5271ff" fill-opacity="1"><g transform="translate(191.528441, 63.761737)"><g><path d="M 3.453125 -6.515625 L 3.453125 -2.546875 C 3.453125 -2.265625 3.515625 -2.0625 3.640625 -1.9375 C 3.773438 -1.8125 4.003906 -1.75 4.328125 -1.75 L 5.296875 -1.75 L 5.296875 0 L 3.984375 0 C 2.234375 0 1.359375 -0.851562 1.359375 -2.5625 L 1.359375 -6.515625 L 0.375 -6.515625 L 0.375 -8.234375 L 1.359375 -8.234375 L 1.359375 -10.265625 L 3.453125 -10.265625 L 3.453125 -8.234375 L 5.296875 -8.234375 L 5.296875 -6.515625 Z M 3.453125 -6.515625 "/></g></g></g><g fill="#5271ff" fill-opacity="1"><g transform="translate(199.520402, 63.761737)"><g><path d="M 4.6875 0.140625 C 3.882812 0.140625 3.164062 -0.0351562 2.53125 -0.390625 C 1.90625 -0.742188 1.410156 -1.242188 1.046875 -1.890625 C 0.679688 -2.535156 0.5 -3.273438 0.5 -4.109375 C 0.5 -4.953125 0.6875 -5.695312 1.0625 -6.34375 C 1.4375 -6.988281 1.941406 -7.484375 2.578125 -7.828125 C 3.222656 -8.179688 3.941406 -8.359375 4.734375 -8.359375 C 5.523438 -8.359375 6.242188 -8.179688 6.890625 -7.828125 C 7.535156 -7.484375 8.039062 -6.988281 8.40625 -6.34375 C 8.78125 -5.695312 8.96875 -4.953125 8.96875 -4.109375 C 8.96875 -3.273438 8.773438 -2.535156 8.390625 -1.890625 C 8.015625 -1.242188 7.503906 -0.742188 6.859375 -0.390625 C 6.210938 -0.0351562 5.488281 0.140625 4.6875 0.140625 Z M 4.6875 -1.671875 C 5.0625 -1.671875 5.410156 -1.765625 5.734375 -1.953125 C 6.066406 -2.140625 6.332031 -2.414062 6.53125 -2.78125 C 6.726562 -3.144531 6.828125 -3.585938 6.828125 -4.109375 C 6.828125 -4.898438 6.625 -5.503906 6.21875 -5.921875 C 5.8125 -6.335938 5.304688 -6.546875 4.703125 -6.546875 C 4.109375 -6.546875 3.609375 -6.335938 3.203125 -5.921875 C 2.804688 -5.503906 2.609375 -4.898438 2.609375 -4.109375 C 2.609375 -3.328125 2.804688 -2.722656 3.203125 -2.296875 C 3.597656 -1.878906 4.09375 -1.671875 4.6875 -1.671875 Z M 4.6875 -1.671875 "/></g></g></g><g fill="#5271ff" fill-opacity="1"><g transform="translate(211.225517, 63.761737)"><g/></g></g><g fill="#5271ff" fill-opacity="1"><g transform="translate(216.989578, 63.761737)"><g><path d="M 6.375 0 L 4.09375 -4.046875 L 3.109375 -4.046875 L 3.109375 0 L 1.03125 0 L 1.03125 -10.375 L 4.921875 -10.375 C 5.722656 -10.375 6.40625 -10.234375 6.96875 -9.953125 C 7.53125 -9.671875 7.953125 -9.285156 8.234375 -8.796875 C 8.515625 -8.316406 8.65625 -7.78125 8.65625 -7.1875 C 8.65625 -6.507812 8.457031 -5.894531 8.0625 -5.34375 C 7.664062 -4.789062 7.078125 -4.410156 6.296875 -4.203125 L 8.78125 0 Z M 3.109375 -5.609375 L 4.84375 -5.609375 C 5.40625 -5.609375 5.820312 -5.742188 6.09375 -6.015625 C 6.375 -6.285156 6.515625 -6.660156 6.515625 -7.140625 C 6.515625 -7.617188 6.375 -7.988281 6.09375 -8.25 C 5.820312 -8.507812 5.40625 -8.640625 4.84375 -8.640625 L 3.109375 -8.640625 Z M 3.109375 -5.609375 "/></g></g></g><g fill="#5271ff" fill-opacity="1"><g transform="translate(228.739258, 63.761737)"><g><path d="M 8.671875 -4.296875 C 8.671875 -3.992188 8.65625 -3.722656 8.625 -3.484375 L 2.59375 -3.484375 C 2.644531 -2.890625 2.851562 -2.425781 3.21875 -2.09375 C 3.59375 -1.757812 4.046875 -1.59375 4.578125 -1.59375 C 5.347656 -1.59375 5.894531 -1.921875 6.21875 -2.578125 L 8.46875 -2.578125 C 8.226562 -1.785156 7.769531 -1.132812 7.09375 -0.625 C 6.425781 -0.113281 5.601562 0.140625 4.625 0.140625 C 3.832031 0.140625 3.117188 -0.0351562 2.484375 -0.390625 C 1.859375 -0.742188 1.367188 -1.242188 1.015625 -1.890625 C 0.660156 -2.535156 0.484375 -3.273438 0.484375 -4.109375 C 0.484375 -4.960938 0.65625 -5.710938 1 -6.359375 C 1.351562 -7.003906 1.84375 -7.5 2.46875 -7.84375 C 3.09375 -8.1875 3.8125 -8.359375 4.625 -8.359375 C 5.40625 -8.359375 6.101562 -8.191406 6.71875 -7.859375 C 7.34375 -7.523438 7.820312 -7.046875 8.15625 -6.421875 C 8.5 -5.804688 8.671875 -5.097656 8.671875 -4.296875 Z M 6.515625 -4.890625 C 6.515625 -5.421875 6.320312 -5.847656 5.9375 -6.171875 C 5.5625 -6.492188 5.101562 -6.65625 4.5625 -6.65625 C 4.050781 -6.65625 3.617188 -6.5 3.265625 -6.1875 C 2.910156 -5.875 2.691406 -5.441406 2.609375 -4.890625 Z M 6.515625 -4.890625 "/></g></g></g><g fill="#5271ff" fill-opacity="1"><g transform="translate(240.132465, 63.761737)"><g><path d="M 0.484375 -4.140625 C 0.484375 -4.972656 0.648438 -5.710938 0.984375 -6.359375 C 1.316406 -7.003906 1.765625 -7.5 2.328125 -7.84375 C 2.898438 -8.1875 3.539062 -8.359375 4.25 -8.359375 C 4.863281 -8.359375 5.398438 -8.234375 5.859375 -7.984375 C 6.316406 -7.742188 6.6875 -7.4375 6.96875 -7.0625 L 6.96875 -8.234375 L 9.0625 -8.234375 L 9.0625 0 L 6.96875 0 L 6.96875 -1.203125 C 6.695312 -0.816406 6.328125 -0.492188 5.859375 -0.234375 C 5.390625 0.015625 4.847656 0.140625 4.234375 0.140625 C 3.535156 0.140625 2.898438 -0.0351562 2.328125 -0.390625 C 1.765625 -0.753906 1.316406 -1.257812 0.984375 -1.90625 C 0.648438 -2.550781 0.484375 -3.296875 0.484375 -4.140625 Z M 6.96875 -4.109375 C 6.96875 -4.617188 6.867188 -5.050781 6.671875 -5.40625 C 6.472656 -5.769531 6.203125 -6.046875 5.859375 -6.234375 C 5.523438 -6.429688 5.164062 -6.53125 4.78125 -6.53125 C 4.394531 -6.53125 4.035156 -6.4375 3.703125 -6.25 C 3.378906 -6.0625 3.113281 -5.785156 2.90625 -5.421875 C 2.707031 -5.066406 2.609375 -4.640625 2.609375 -4.140625 C 2.609375 -3.648438 2.707031 -3.21875 2.90625 -2.84375 C 3.113281 -2.46875 3.382812 -2.179688 3.71875 -1.984375 C 4.050781 -1.785156 4.40625 -1.6875 4.78125 -1.6875 C 5.164062 -1.6875 5.523438 -1.785156 5.859375 -1.984375 C 6.203125 -2.179688 6.472656 -2.457031 6.671875 -2.8125 C 6.867188 -3.175781 6.96875 -3.609375 6.96875 -4.109375 Z M 6.96875 -4.109375 "/></g></g></g><g fill="#5271ff" fill-opacity="1"><g transform="translate(252.431683, 63.761737)"><g><path d="M 3.109375 -11 L 3.109375 0 L 1.03125 0 L 1.03125 -11 Z M 3.109375 -11 "/></g></g></g><g fill="#5271ff" fill-opacity="1"><g transform="translate(258.789845, 63.761737)"><g><path d="M 2.078125 -9.21875 C 1.710938 -9.21875 1.40625 -9.332031 1.15625 -9.5625 C 0.914062 -9.789062 0.796875 -10.082031 0.796875 -10.4375 C 0.796875 -10.78125 0.914062 -11.066406 1.15625 -11.296875 C 1.40625 -11.535156 1.710938 -11.65625 2.078125 -11.65625 C 2.441406 -11.65625 2.742188 -11.535156 2.984375 -11.296875 C 3.234375 -11.066406 3.359375 -10.78125 3.359375 -10.4375 C 3.359375 -10.082031 3.234375 -9.789062 2.984375 -9.5625 C 2.742188 -9.332031 2.441406 -9.21875 2.078125 -9.21875 Z M 3.109375 -8.234375 L 3.109375 0 L 1.03125 0 L 1.03125 -8.234375 Z M 3.109375 -8.234375 "/></g></g></g><g fill="#5271ff" fill-opacity="1"><g transform="translate(265.148008, 63.761737)"><g><path d="M 3.453125 -6.515625 L 3.453125 -2.546875 C 3.453125 -2.265625 3.515625 -2.0625 3.640625 -1.9375 C 3.773438 -1.8125 4.003906 -1.75 4.328125 -1.75 L 5.296875 -1.75 L 5.296875 0 L 3.984375 0 C 2.234375 0 1.359375 -0.851562 1.359375 -2.5625 L 1.359375 -6.515625 L 0.375 -6.515625 L 0.375 -8.234375 L 1.359375 -8.234375 L 1.359375 -10.265625 L 3.453125 -10.265625 L 3.453125 -8.234375 L 5.296875 -8.234375 L 5.296875 -6.515625 Z M 3.453125 -6.515625 "/></g></g></g><g fill="#5271ff" fill-opacity="1"><g transform="translate(273.139969, 63.761737)"><g><path d="M 8.90625 -8.234375 L 3.796875 3.890625 L 1.59375 3.890625 L 3.375 -0.203125 L 0.078125 -8.234375 L 2.40625 -8.234375 L 4.53125 -2.484375 L 6.6875 -8.234375 Z M 8.90625 -8.234375 "/></g></g></g></svg>